<svg width="657" height="613" viewBox="0 0 657 613" fill="none" xmlns="http://www.w3.org/2000/svg">
<path d="M55.6802 455.368C36.3719 499.906 5.65218 545.239 0.328644 593.39C8.27445 591.234 17.4354 589.032 18.9675 588.893C42.0545 586.791 64.4688 582.052 87.0256 579.05C102.334 577.013 113.608 568.351 128.891 566.236C143.6 564.201 161.078 568.814 175.265 565.308C177.041 564.869 200.419 526.683 200.599 522.78C201.504 503.216 208.913 483.745 219.063 465.211C223.858 456.455 223.989 450.458 231.515 443.297C238.871 436.298 233.81 425.415 235.594 416.927C239.777 397.025 256.3 379.714 264.578 360.471C269.751 348.446 273.009 338.902 279.607 326.672C282.731 320.88 283.242 314.262 285.833 308.287C288.372 302.429 295.637 299.711 296.997 293.245C298.358 286.769 298.9 270.204 310.952 275.417C320.171 279.404 312.276 289.141 322.116 291.573C334.201 294.56 343.34 337.458 346.591 345.614C361.723 383.571 381.605 419.17 395.756 458.34C399.677 469.191 399.365 476.529 411.429 482.667C418.95 486.494 418.196 498.509 423.237 503.838C438.102 519.554 450.442 526.598 451.791 548.78C452.371 558.3 457.877 569.034 459.735 578.679C461.185 586.205 477.301 579.827 482.922 583.879C494.477 592.207 525.833 601.588 540.675 602.264C568.247 603.519 595.071 608.265 623.547 608.949C627.997 609.056 654.25 616.93 656.395 610.435C658.74 603.335 653.581 598.595 652.531 592.235C650.86 582.119 637.738 582.662 637.287 572.922C636.891 564.36 633.333 553.055 625.694 547.108C617.66 540.854 611.056 517.15 610.236 507.924C609.669 501.546 601.984 493.258 599.501 486.01C595.831 475.296 590.256 466.191 586.62 455.182C584.375 448.386 576.73 448.82 574.597 441.069C572.361 432.945 568.725 425.133 560.856 419.898C550.867 413.251 546.053 398.791 544.325 388.327C542.969 380.117 530.932 367.941 525.217 361.585C504.403 338.438 488.604 310.826 477.125 283.959C470.703 268.927 458.47 257.295 453.938 241.618C451.171 232.042 446.672 225.947 439.983 217.847C432.749 209.087 423.093 203.804 420.875 192.776C419.037 183.635 416.61 183.828 409.282 178.848C396.278 170.01 386.72 144.908 379.225 132.421C368.892 115.208 354.812 99.7461 341.439 84.3224C326.86 67.5083 307.466 53.6042 295.494 35.4811C292.491 30.936 265.428 0.999984 262.431 0.567882C244.305 -2.0452 249.588 4.5972 246.758 15.6103C244.073 26.0612 236.884 36.3201 231.515 45.8808C218.422 69.1976 209.674 93.9295 198.881 117.936C184.659 149.57 171.517 180.673 161.739 214.504C159.301 222.941 151.441 228.006 146.496 235.304C141.492 242.688 144.668 251.361 140.055 258.703C134.473 267.587 125.806 275.33 121.162 284.702C116.02 295.081 117.283 307.391 112.574 318.13C92.6219 363.629 75.4184 409.839 55.6802 455.368Z" fill="#D9D9D9" fill-opacity="0.1"/>
</svg>
